<?xml version="1.0" standalone="no"?>
<!DOCTYPE svg PUBLIC "-//W3C//DTD SVG 20010904//EN"
 "http://www.w3.org/TR/2001/REC-SVG-20010904/DTD/svg10.dtd">
<svg version="1.0" xmlns="http://www.w3.org/2000/svg"
 width="2363.000000pt" height="2363.000000pt" viewBox="0 0 2363.000000 2363.000000"
 preserveAspectRatio="xMidYMid meet">
<metadata>
Created by potrace 1.11, written by Peter Selinger 2001-2013
</metadata>
<g transform="translate(0.000000,2363.000000) scale(0.100000,-0.100000)"
fill="#000000" stroke="none">
<path d="M13980 21801 c-84 -26 -159 -90 -201 -173 -26 -51 -36 -150 -21 -210
6 -24 322 -698 702 -1498 381 -800 694 -1461 697 -1468 4 -10 -617 -12 -3102
-10 l-3107 3 -294 608 c-162 335 -294 610 -294 612 0 2 134 5 298 7 289 3 298
4 341 26 65 35 127 104 151 170 29 75 25 195 -9 260 -31 61 -94 120 -160 151
l-56 26 -1100 0 c-1038 0 -1103 -1 -1152 -18 -66 -23 -146 -94 -181 -161 -23
-44 -27 -63 -27 -136 0 -110 26 -171 101 -239 90 -82 81 -81 613 -81 l466 0
1049 -2167 c576 -1192 1044 -2169 1040 -2171 -5 -1 -1037 -556 -2294 -1232
-1699 -913 -2296 -1239 -2328 -1269 -99 -94 -124 -241 -63 -365 79 -161 261
-225 422 -149 35 17 1070 571 2299 1232 1229 662 2239 1203 2244 1204 5 1 297
-594 650 -1322 443 -915 652 -1336 677 -1365 112 -129 319 -142 446 -29 27 24
725 1032 1909 2758 1027 1496 1872 2728 1878 2737 10 14 214 -408 1215 -2520
662 -1395 1219 -2560 1238 -2589 79 -118 230 -167 370 -120 109 38 197 152
209 272 5 49 2 73 -18 130 -14 39 -921 1957 -2016 4263 -1096 2306 -1992 4195
-1992 4197 0 3 685 6 1523 7 l1522 3 57 28 c242 119 242 460 0 579 l-47 23
-1815 2 c-998 1 -1826 -2 -1840 -6z m982 -4028 c-10 -16 -758 -1106 -1662
-2423 -904 -1317 -1650 -2403 -1660 -2413 -15 -17 -78 110 -1085 2190 -588
1214 -1119 2313 -1181 2441 l-113 232 2860 0 2860 0 -19 -27z"/>
<path d="M5005 16920 c-960 -84 -1806 -437 -2505 -1046 -119 -103 -354 -340
-456 -459 -594 -695 -948 -1547 -1023 -2458 -14 -162 -14 -535 -1 -692 110
-1310 752 -2435 1829 -3204 563 -402 1257 -668 1971 -756 181 -23 653 -31 845
-16 1259 102 2384 721 3137 1726 456 609 745 1340 834 2105 51 443 8 1195 -78
1364 -92 180 -356 223 -502 82 -75 -73 -91 -114 -91 -231 0 -55 8 -147 17
-205 43 -262 49 -717 13 -980 -84 -623 -304 -1191 -650 -1675 -243 -339 -570
-666 -896 -892 -528 -368 -1150 -595 -1789 -653 -147 -13 -511 -13 -660 0
-1458 131 -2713 1130 -3169 2523 -127 387 -181 736 -181 1162 0 584 126 1118
384 1633 189 377 402 670 710 977 620 618 1416 981 2309 1055 184 16 553 8
727 -14 773 -100 1458 -415 2035 -935 117 -105 157 -125 262 -129 71 -4 89 -1
136 21 74 34 131 88 164 155 23 48 28 70 28 137 0 115 -29 170 -148 279 -672
618 -1512 1001 -2437 1112 -157 18 -661 27 -815 14z"/>
<path d="M18010 16923 c-150 -9 -324 -34 -370 -54 -59 -25 -133 -101 -163
-167 -32 -70 -30 -179 5 -253 32 -69 88 -127 154 -160 59 -29 129 -31 373 -10
291 25 657 6 956 -50 1357 -252 2474 -1261 2860 -2584 230 -793 195 -1625
-102 -2380 -260 -661 -700 -1229 -1278 -1650 -443 -322 -976 -547 -1525 -644
-388 -69 -865 -69 -1265 -1 -1313 225 -2424 1173 -2855 2435 -87 255 -150 538
-182 820 -16 143 -16 617 0 760 99 859 453 1603 1057 2220 67 69 128 141 141
168 77 151 12 344 -141 422 -52 26 -69 30 -144 30 -128 0 -166 -22 -332 -192
-537 -550 -910 -1207 -1099 -1938 -519 -2004 448 -4089 2314 -4991 423 -204
843 -328 1336 -395 199 -26 663 -37 872 -20 1411 117 2645 881 3376 2091 651
1076 794 2394 392 3600 -303 909 -904 1693 -1705 2224 -195 130 -274 176 -471
274 -503 252 -1043 400 -1614 442 -124 9 -457 11 -590 3z"/>
<path d="M1323 6673 c15 -2 39 -2 55 0 15 2 2 4 -28 4 -30 0 -43 -2 -27 -4z"/>
<path d="M5165 6665 c-24 -12 -25 -14 -5 -8 14 3 41 10 60 14 34 7 34 7 5 7
-16 1 -43 -5 -60 -13z"/>
<path d="M5365 6665 c28 -7 51 -12 53 -10 6 5 -61 25 -82 24 -12 0 2 -6 29
-14z"/>
<path d="M8618 6673 c39 -2 105 -2 145 0 39 1 7 3 -73 3 -80 0 -112 -2 -72 -3z"/>
<path d="M11053 6673 c9 -2 23 -2 30 0 6 3 -1 5 -18 5 -16 0 -22 -2 -12 -5z"/>
<path d="M11173 6673 c9 -2 23 -2 30 0 6 3 -1 5 -18 5 -16 0 -22 -2 -12 -5z"/>
<path d="M13778 6665 c-52 -19 -123 -69 -152 -108 -31 -41 -66 -116 -65 -142
0 -11 8 3 18 32 37 108 122 188 231 217 30 8 44 15 30 15 -14 0 -42 -7 -62
-14z"/>
<path d="M13988 6665 c69 -19 86 -29 139 -78 47 -44 69 -78 89 -142 7 -22 13
-31 13 -20 1 34 -45 121 -86 162 -46 46 -115 82 -170 89 -31 4 -29 2 15 -11z"/>
<path d="M1258 6663 c7 -3 16 -2 19 1 4 3 -2 6 -13 5 -11 0 -14 -3 -6 -6z"/>
<path d="M1457 6651 c93 -32 157 -90 203 -186 13 -26 16 -275 20 -1770 l5
-1740 0 1740 0 1740 -23 46 c-13 26 -39 65 -58 87 -36 42 -141 102 -178 102
-12 -1 2 -9 31 -19z"/>
<path d="M8443 6663 c15 -2 37 -2 50 0 12 2 0 4 -28 4 -27 0 -38 -2 -22 -4z"/>
<path d="M8893 6663 c15 -2 37 -2 50 0 12 2 0 4 -28 4 -27 0 -38 -2 -22 -4z"/>
<path d="M10954 6641 c-76 -44 -154 -146 -153 -201 0 -8 9 8 20 37 25 66 93
137 162 168 28 14 45 25 37 25 -8 0 -38 -13 -66 -29z"/>
<path d="M11275 6641 c97 -46 162 -128 186 -235 l8 -41 -3 42 c-5 58 -39 124
-89 173 -40 40 -123 90 -149 90 -7 0 14 -13 47 -29z"/>
<path d="M15370 6663 c949 -7 2938 -7 2922 -1 -9 4 -757 6 -1662 5 -905 -1
-1472 -3 -1260 -4z"/>
<path d="M1194 6644 c-49 -24 -105 -74 -135 -123 -16 -25 -29 -50 -29 -55 1
-6 10 6 21 28 28 53 95 117 149 143 25 12 41 22 35 22 -5 0 -24 -6 -41 -15z"/>
<path d="M8353 6653 c9 -2 25 -2 35 0 9 3 1 5 -18 5 -19 0 -27 -2 -17 -5z"/>
<path d="M8993 6653 c9 -2 25 -2 35 0 9 3 1 5 -18 5 -19 0 -27 -2 -17 -5z"/>
<path d="M14914 6640 c-23 -12 -60 -36 -82 -56 -45 -38 -103 -143 -101 -183 1
-21 3 -18 10 12 24 104 105 195 206 232 21 7 31 14 23 14 -8 1 -34 -8 -56 -19z"/>
<path d="M19233 6653 c9 -2 23 -2 30 0 6 3 -1 5 -18 5 -16 0 -22 -2 -12 -5z"/>
<path d="M22263 6653 c9 -2 25 -2 35 0 9 3 1 5 -18 5 -19 0 -27 -2 -17 -5z"/>
<path d="M5039 6581 c-38 -38 -69 -75 -68 -82 0 -9 5 -6 12 6 16 26 106 116
132 132 12 7 15 12 6 12 -7 1 -44 -30 -82 -68z"/>
<path d="M5444 6638 c49 -32 105 -92 132 -140 l29 -53 5 -1970 5 -1970 0 1970
0 1970 -24 45 c-28 55 -95 126 -136 146 -16 8 -21 9 -11 2z"/>
<path d="M8283 6643 c9 -2 25 -2 35 0 9 3 1 5 -18 5 -19 0 -27 -2 -17 -5z"/>
<path d="M9063 6643 c9 -2 23 -2 30 0 6 3 -1 5 -18 5 -16 0 -22 -2 -12 -5z"/>
<path d="M18370 6618 c66 -40 125 -115 142 -181 7 -27 14 -44 16 -38 8 23 -30
110 -65 151 -36 41 -116 100 -137 100 -6 0 14 -15 44 -32z"/>
<path d="M19168 6643 c6 -2 18 -2 25 0 6 3 1 5 -13 5 -14 0 -19 -2 -12 -5z"/>
<path d="M19323 6639 c43 -10 91 -33 127 -61 14 -11 313 -371 666 -801 352
-430 645 -782 651 -782 5 0 299 354 652 787 352 433 655 797 672 809 17 12 56
30 87 40 32 10 50 18 41 18 -37 2 -113 -34 -154 -72 -25 -23 -325 -386 -668
-806 -342 -421 -626 -765 -630 -765 -4 -1 -298 354 -655 789 -633 772 -649
790 -710 822 -35 18 -76 33 -90 32 -22 -1 -20 -3 11 -10z"/>
<path d="M22365 6636 c95 -30 163 -86 204 -168 17 -33 31 -55 31 -47 0 26 -58
115 -96 149 -42 37 -129 80 -159 79 -11 0 -2 -6 20 -13z"/>
<path d="M8228 6633 c6 -2 18 -2 25 0 6 3 1 5 -13 5 -14 0 -19 -2 -12 -5z"/>
<path d="M9190 6616 c129 -37 211 -70 367 -148 164 -82 203 -111 243 -182 17
-28 30 -46 30 -40 0 20 -58 101 -95 131 -91 75 -469 240 -590 257 -22 4 -2 -5
45 -18z"/>
<path d="M19093 6619 c-77 -38 -173 -164 -172 -224 0 -11 6 -1 13 22 27 86 86
154 171 197 28 14 46 26 40 26 -5 0 -29 -9 -52 -21z"/>
<path d="M8178 6623 c6 -2 18 -2 25 0 6 3 1 5 -13 5 -14 0 -19 -2 -12 -5z"/>
<path d="M8085 6605 c-54 -17 -33 -18 30 -1 28 8 41 14 30 14 -11 0 -38 -5
-60 -13z"/>
<path d="M7995 6580 c-13 -5 -14 -9 -5 -9 8 0 24 4 35 9 13 5 14 9 5 9 -8 0
-24 -4 -35 -9z"/>
<path d="M7802 6513 c-35 -14 -61 -27 -59 -29 3 -4 128 44 136 52 10 10 -19 1
-77 -23z"/>
<path d="M4956 6465 c-3 -9 -6 -22 -5 -28 0 -7 5 -1 10 12 5 13 8 26 5 28 -2
2 -6 -3 -10 -12z"/>
<path d="M7595 6417 c-432 -225 -759 -543 -984 -961 -28 -51 -51 -97 -51 -102
0 -5 29 44 65 110 230 417 547 724 978 947 73 38 128 68 122 68 -5 0 -64 -28
-130 -62z"/>
<path d="M1016 6428 c-3 -13 -5 -34 -5 -48 1 -15 5 -7 10 19 9 47 6 68 -5 29z"/>
<path d="M4942 6390 c0 -19 2 -27 5 -17 2 9 2 25 0 35 -3 9 -5 1 -5 -18z"/>
<path d="M10795 4475 c0 -1072 1 -1510 2 -972 2 538 2 1416 0 1950 -1 535 -2
95 -2 -978z"/>
<path d="M14235 4470 c0 -1064 1 -1500 2 -968 2 533 2 1403 0 1935 -1 533 -2
97 -2 -967z"/>
<path d="M22602 6380 c0 -14 2 -19 5 -12 2 6 2 18 0 25 -3 6 -5 1 -5 -13z"/>
<path d="M13550 5600 l0 -780 -817 -3 -818 -2 823 -3 822 -2 0 785 c0 432 -2
785 -5 785 -3 0 -5 -351 -5 -780z"/>
<path d="M18533 6335 c0 -22 2 -30 4 -17 2 12 2 30 0 40 -3 9 -5 -1 -4 -23z"/>
<path d="M18913 6315 c0 -33 2 -45 4 -27 2 18 2 45 0 60 -2 15 -4 0 -4 -33z"/>
<path d="M14722 6330 c0 -19 2 -27 5 -17 2 9 2 25 0 35 -3 9 -5 1 -5 -18z"/>
<path d="M22612 6315 c0 -16 2 -22 5 -12 2 9 2 23 0 30 -3 6 -5 -1 -5 -18z"/>
<path d="M14731 6264 c-1 -35 58 -140 100 -179 45 -40 132 -85 164 -84 11 0
-1 7 -26 15 -104 32 -191 119 -223 223 -8 25 -15 37 -15 25z"/>
<path d="M18522 6260 c0 -14 2 -19 5 -12 2 6 2 18 0 25 -3 6 -5 1 -5 -13z"/>
<path d="M22593 6229 c-6 -24 -23 -60 -36 -80 -13 -20 -349 -433 -746 -919
-397 -485 -721 -884 -719 -885 2 -2 330 395 728 881 698 853 798 983 789 1029
-3 11 -9 0 -16 -26z"/>
<path d="M18921 6243 c-2 -45 95 -171 770 -995 l739 -903 2 -900 3 -900 3 901
2 900 -740 905 c-554 676 -745 917 -760 954 -10 28 -19 44 -19 38z"/>
<path d="M9837 6190 c3 -25 7 -47 9 -49 8 -9 2 55 -6 74 -6 13 -7 5 -3 -25z"/>
<path d="M18500 6196 c-16 -51 -92 -130 -152 -160 -29 -14 -45 -26 -37 -26 25
0 101 53 142 99 37 41 73 108 64 118 -3 2 -10 -12 -17 -31z"/>
<path d="M9841 6090 c-1 -14 -4 -36 -6 -50 l-6 -25 11 25 c6 13 9 36 7 50 l-4
25 -2 -25z"/>
<path d="M8658 6023 c17 -2 47 -2 65 0 17 2 3 4 -33 4 -36 0 -50 -2 -32 -4z"/>
<path d="M8503 6013 c15 -2 39 -2 55 0 15 2 2 4 -28 4 -30 0 -43 -2 -27 -4z"/>
<path d="M8833 6013 c15 -2 37 -2 50 0 12 2 0 4 -28 4 -27 0 -38 -2 -22 -4z"/>
<path d="M8423 6003 c9 -2 25 -2 35 0 9 3 1 5 -18 5 -19 0 -27 -2 -17 -5z"/>
<path d="M8995 5986 c95 -25 236 -84 330 -137 31 -17 58 -29 61 -27 7 8 -237
125 -316 152 -42 14 -96 28 -120 31 -26 3 -7 -5 45 -19z"/>
<path d="M9812 5986 c-19 -42 -83 -106 -137 -137 -56 -32 -54 -39 3 -10 20 11
52 34 71 53 39 38 86 106 79 113 -3 3 -10 -6 -16 -19z"/>
<path d="M18258 6003 c6 -2 18 -2 25 0 6 3 1 5 -13 5 -14 0 -19 -2 -12 -5z"/>
<path d="M8363 5993 c9 -2 23 -2 30 0 6 3 -1 5 -18 5 -16 0 -22 -2 -12 -5z"/>
<path d="M15653 5993 l637 -3 1 -1728 c0 -1069 4 -1735 10 -1747 8 -17 9 -17
4 5 -2 14 -5 802 -5 1753 l0 1727 -642 -2 -643 -3 638 -2z"/>
<path d="M17288 5993 c178 -2 466 -2 640 0 174 1 29 2 -323 2 -352 0 -495 -1
-317 -2z"/>
<path d="M8225 5965 c-95 -28 -198 -66 -193 -71 2 -1 35 8 73 22 39 14 108 36
155 49 47 13 76 24 65 24 -11 0 -56 -11 -100 -24z"/>
<path d="M7897 5832 c-59 -31 -149 -86 -200 -122 -118 -83 -284 -249 -369
-370 -62 -88 -188 -318 -188 -344 0 -6 26 41 58 104 162 328 392 562 717 732
60 32 106 58 100 58 -5 0 -58 -26 -118 -58z"/>
<path d="M9565 5810 c-27 -7 -28 -8 -5 -8 14 0 34 3 45 8 25 11 2 11 -40 0z"/>
<path d="M9443 5803 c9 -2 23 -2 30 0 6 3 -1 5 -18 5 -16 0 -22 -2 -12 -5z"/>
<path d="M6520 5263 c-39 -93 -70 -182 -70 -197 1 -6 16 30 34 79 18 50 42
112 54 139 12 27 20 51 18 53 -2 2 -18 -31 -36 -74z"/>
<path d="M6427 4988 c-9 -37 -17 -73 -16 -80 0 -7 9 19 20 57 10 39 17 74 16
80 -2 5 -11 -21 -20 -57z"/>
<path d="M7107 4903 c-14 -43 -28 -96 -31 -118 -3 -22 5 -2 18 45 13 47 29 98
35 114 7 16 10 31 7 33 -2 3 -16 -31 -29 -74z"/>
<path d="M6402 4870 c0 -14 2 -19 5 -12 2 6 2 18 0 25 -3 6 -5 1 -5 -13z"/>
<path d="M6392 4815 c0 -16 2 -22 5 -12 2 9 2 23 0 30 -3 6 -5 -1 -5 -18z"/>
<path d="M11833 4791 c-75 -35 -160 -126 -177 -191 -4 -15 1 -10 13 14 48 92
110 148 194 177 29 10 43 18 32 18 -11 1 -39 -8 -62 -18z"/>
<path d="M6382 4750 c0 -19 2 -27 5 -17 2 9 2 25 0 35 -3 9 -5 1 -5 -18z"/>
<path d="M7062 4715 c0 -16 2 -22 5 -12 2 9 2 23 0 30 -3 6 -5 -1 -5 -18z"/>
<path d="M6373 4660 c0 -25 2 -35 4 -22 2 12 2 32 0 45 -2 12 -4 2 -4 -23z"/>
<path d="M7053 4645 c0 -22 2 -30 4 -17 2 12 2 30 0 40 -3 9 -5 -1 -4 -23z"/>
<path d="M7044 4455 c0 -77 2 -107 3 -67 2 40 2 103 0 140 -2 37 -3 4 -3 -73z"/>
<path d="M6364 4455 c0 -71 1 -99 3 -62 2 37 2 96 0 130 -2 34 -3 4 -3 -68z"/>
<path d="M11642 4550 c0 -14 2 -19 5 -12 2 6 2 18 0 25 -3 6 -5 1 -5 -13z"/>
<path d="M8770 4531 c-102 -32 -209 -134 -224 -216 -4 -21 -1 -17 10 12 21 57
96 139 155 169 27 13 72 28 101 33 41 7 45 9 18 9 -19 0 -46 -3 -60 -7z"/>
<path d="M9761 4536 c2 -2 27 -6 54 -9 32 -4 43 -3 30 3 -19 8 -93 14 -84 6z"/>
<path d="M9910 4494 c78 -44 127 -102 156 -183 7 -20 13 -28 14 -18 1 52 -92
171 -162 208 -55 28 -60 23 -8 -7z"/>
<path d="M11633 4475 c0 -27 2 -38 4 -22 2 15 2 37 0 50 -2 12 -4 0 -4 -28z"/>
<path d="M11641 4395 c-1 -36 46 -119 90 -161 49 -46 88 -74 104 -74 5 0 -6
10 -25 21 -75 45 -131 114 -156 192 -7 23 -13 33 -13 22z"/>
<path d="M6373 4255 c0 -27 2 -38 4 -22 2 15 2 37 0 50 -2 12 -4 0 -4 -28z"/>
<path d="M7052 4270 c0 -19 2 -27 5 -17 2 9 2 25 0 35 -3 9 -5 1 -5 -18z"/>
<path d="M8533 4215 c0 -38 2 -53 4 -32 2 20 2 52 0 70 -2 17 -4 1 -4 -38z"/>
<path d="M10085 3535 c0 -407 1 -572 2 -367 2 206 2 539 0 740 -1 202 -2 34
-2 -373z"/>
<path d="M7062 4200 c0 -14 2 -19 5 -12 2 6 2 18 0 25 -3 6 -5 1 -5 -13z"/>
<path d="M6382 4170 c0 -19 2 -27 5 -17 2 9 2 25 0 35 -3 9 -5 1 -5 -18z"/>
<path d="M7072 4150 c0 -14 2 -19 5 -12 2 6 2 18 0 25 -3 6 -5 1 -5 -13z"/>
<path d="M11888 4143 c6 -2 18 -2 25 0 6 3 1 5 -13 5 -14 0 -19 -2 -12 -5z"/>
<path d="M8540 4129 c0 -30 52 -118 92 -154 44 -40 131 -85 163 -85 11 1 -3 9
-32 19 -100 34 -168 98 -204 190 -10 25 -18 39 -19 30z"/>
<path d="M12737 4133 l813 -3 3 -788 2 -787 3 793 2 792 -817 -2 -818 -3 812
-2z"/>
<path d="M6392 4100 c0 -28 25 -133 26 -110 1 8 -5 42 -12 75 -8 33 -14 49
-14 35z"/>
<path d="M7081 4104 c0 -11 3 -14 6 -6 3 7 2 16 -1 19 -3 4 -6 -2 -5 -13z"/>
<path d="M7091 4070 c0 -8 4 -24 9 -35 5 -13 9 -14 9 -5 0 8 -4 24 -9 35 -5
13 -9 14 -9 5z"/>
<path d="M6421 3954 c0 -11 3 -14 6 -6 3 7 2 16 -1 19 -3 4 -6 -2 -5 -13z"/>
<path d="M7135 3930 c4 -14 36 -81 71 -150 163 -318 414 -561 746 -720 57 -27
107 -50 113 -50 5 0 -53 31 -130 70 -172 86 -299 176 -425 300 -132 130 -216
248 -306 425 -42 83 -73 139 -69 125z"/>
<path d="M6431 3914 c0 -11 3 -14 6 -6 3 7 2 16 -1 19 -3 4 -6 -2 -5 -13z"/>
<path d="M6441 3883 c-2 -28 76 -230 134 -348 222 -453 574 -805 1040 -1041
130 -65 313 -140 322 -131 2 2 -31 17 -74 32 -43 15 -129 51 -191 80 -562 267
-988 731 -1187 1295 -24 69 -44 120 -44 113z"/>
<path d="M9113 3883 l287 -3 0 -410 0 -409 -27 -15 c-33 -18 -25 -21 12 -4
l25 11 0 419 0 418 -292 -2 -293 -3 288 -2z"/>
<path d="M9250 3000 c-41 -16 -69 -29 -63 -29 13 -1 143 46 152 54 9 10 -16 3
-89 -25z"/>
<path d="M8080 3007 c0 -6 120 -47 134 -46 6 0 -11 8 -39 18 -76 27 -95 33
-95 28z"/>
<path d="M9080 2949 c-36 -10 -49 -16 -29 -14 41 6 131 33 109 33 -8 0 -44 -8
-80 -19z"/>
<path d="M3899 2949 c106 -21 204 -102 246 -205 14 -32 25 -52 25 -44 0 34
-53 124 -100 170 -52 51 -137 91 -188 89 -19 -1 -14 -4 17 -10z"/>
<path d="M8245 2950 c11 -5 29 -8 40 -8 16 0 15 2 -5 8 -34 11 -60 11 -35 0z"/>
<path d="M8318 2933 c6 -2 18 -2 25 0 6 3 1 5 -13 5 -14 0 -19 -2 -12 -5z"/>
<path d="M8368 2923 c6 -2 18 -2 25 0 6 3 1 5 -13 5 -14 0 -19 -2 -12 -5z"/>
<path d="M8973 2923 c9 -2 23 -2 30 0 6 3 -1 5 -18 5 -16 0 -22 -2 -12 -5z"/>
<path d="M8423 2913 c9 -2 25 -2 35 0 9 3 1 5 -18 5 -19 0 -27 -2 -17 -5z"/>
<path d="M8903 2913 c9 -2 25 -2 35 0 9 3 1 5 -18 5 -19 0 -27 -2 -17 -5z"/>
<path d="M8513 2903 c15 -2 39 -2 55 0 15 2 2 4 -28 4 -30 0 -43 -2 -27 -4z"/>
<path d="M8793 2903 c15 -2 39 -2 55 0 15 2 2 4 -28 4 -30 0 -43 -2 -27 -4z"/>
<path d="M10061 2750 c-23 -76 -104 -144 -273 -230 -80 -41 -145 -76 -143 -78
2 -2 67 29 146 69 90 46 161 91 195 121 51 47 100 126 92 149 -2 7 -10 -8 -17
-31z"/>
<path d="M4173 2620 c0 -36 2 -50 4 -32 2 17 2 47 0 65 -2 17 -4 3 -4 -33z"/>
<path d="M16963 2565 c0 -22 2 -30 4 -17 2 12 2 30 0 40 -3 9 -5 -1 -4 -23z"/>
<path d="M1011 2568 c-2 -45 37 -133 80 -181 41 -47 145 -107 183 -107 12 1
-2 9 -31 19 -122 42 -198 128 -223 255 -6 31 -8 34 -9 14z"/>
<path d="M11461 2560 c-1 -14 -4 -36 -6 -50 l-6 -25 11 25 c6 13 9 36 7 50
l-4 25 -2 -25z"/>
<path d="M4942 2540 c0 -19 2 -27 5 -17 2 9 2 25 0 35 -3 9 -5 1 -5 -18z"/>
<path d="M4161 2534 c-2 -35 -49 -118 -90 -158 -21 -20 -60 -49 -87 -62 -27
-14 -38 -22 -24 -18 89 23 223 180 207 242 -4 13 -5 13 -6 -4z"/>
<path d="M13562 2530 c0 -14 2 -19 5 -12 2 6 2 18 0 25 -3 6 -5 1 -5 -13z"/>
<path d="M21081 2529 c0 -14 -15 -53 -32 -87 -52 -105 -139 -160 -273 -173
l-81 -8 80 3 c96 3 153 26 218 85 49 45 101 147 94 184 -4 20 -4 19 -6 -4z"/>
<path d="M14221 2514 c0 -11 3 -14 6 -6 3 7 2 16 -1 19 -3 4 -6 -2 -5 -13z"/>
<path d="M20441 2515 c-1 -33 44 -120 83 -158 35 -36 114 -83 122 -74 3 2 -10
10 -28 18 -42 17 -115 84 -135 123 -9 17 -22 49 -29 71 -7 22 -13 31 -13 20z"/>
<path d="M10800 2509 c0 -31 52 -118 96 -159 48 -44 115 -80 149 -79 11 0 1 6
-22 13 -91 29 -167 101 -203 193 -11 26 -19 41 -20 32z"/>
<path d="M16937 2475 c-26 -63 -89 -130 -150 -159 -56 -27 -58 -35 -2 -12 50
21 123 93 151 149 14 27 24 53 22 58 -2 5 -11 -11 -21 -36z"/>
<path d="M4956 2475 c7 -40 58 -118 98 -152 38 -32 124 -73 151 -72 11 0 2 6
-20 13 -102 32 -183 106 -220 203 -12 31 -14 32 -9 8z"/>
<path d="M5586 2452 c-22 -53 -95 -136 -141 -160 -16 -8 -48 -21 -70 -28 -22
-7 -31 -13 -20 -13 35 -1 122 46 164 88 40 40 95 134 89 152 -2 5 -12 -13 -22
-39z"/>
<path d="M13576 2480 c16 -61 91 -143 165 -180 61 -31 60 -23 -1 10 -63 34
-118 91 -149 153 -12 23 -19 31 -15 17z"/>
<path d="M14201 2463 c-37 -83 -106 -147 -191 -176 -25 -9 -37 -16 -27 -17 27
0 101 38 144 74 36 31 100 132 91 142 -3 2 -10 -8 -17 -23z"/>
<path d="M16310 2484 c0 -19 56 -99 91 -128 40 -34 125 -76 154 -76 11 1 -3 9
-32 19 -90 31 -152 83 -196 166 -9 17 -16 25 -17 19z"/>
<path d="M11426 2446 c-30 -57 -108 -125 -172 -151 -32 -14 -52 -25 -44 -25
32 0 121 51 164 93 41 42 82 104 74 113 -2 2 -12 -12 -22 -30z"/>
<path d="M9607 2434 c-3 -3 -61 -26 -129 -49 -68 -24 -118 -44 -111 -44 6 -1
58 15 115 35 102 36 163 63 142 64 -6 0 -13 -3 -17 -6z"/>
<path d="M7980 2345 c19 -7 42 -13 50 -13 8 0 -1 6 -20 13 -19 7 -42 13 -50
13 -8 0 1 -6 20 -13z"/>
<path d="M9260 2319 c-36 -10 -49 -16 -29 -14 41 6 131 33 109 33 -8 0 -44 -8
-80 -19z"/>
<path d="M8058 2323 c7 -3 16 -2 19 1 4 3 -2 6 -13 5 -11 0 -14 -3 -6 -6z"/>
<path d="M8098 2313 c7 -3 16 -2 19 1 4 3 -2 6 -13 5 -11 0 -14 -3 -6 -6z"/>
<path d="M8150 2300 c14 -4 34 -8 45 -8 16 0 15 2 -5 8 -14 4 -34 8 -45 8 -16
0 -15 -2 5 -8z"/>
<path d="M9158 2293 c6 -2 18 -2 25 0 6 3 1 5 -13 5 -14 0 -19 -2 -12 -5z"/>
<path d="M3898 2283 c6 -2 18 -2 25 0 6 3 1 5 -13 5 -14 0 -19 -2 -12 -5z"/>
<path d="M8233 2283 c9 -2 23 -2 30 0 6 3 -1 5 -18 5 -16 0 -22 -2 -12 -5z"/>
<path d="M9108 2283 c6 -2 18 -2 25 0 6 3 1 5 -13 5 -14 0 -19 -2 -12 -5z"/>
<path d="M16698 2283 c6 -2 18 -2 25 0 6 3 1 5 -13 5 -14 0 -19 -2 -12 -5z"/>
<path d="M1942 2273 c357 -2 939 -2 1295 0 357 1 65 2 -647 2 -712 0 -1004 -1
-648 -2z"/>
<path d="M8293 2273 c9 -2 23 -2 30 0 6 3 -1 5 -18 5 -16 0 -22 -2 -12 -5z"/>
<path d="M9043 2273 c9 -2 25 -2 35 0 9 3 1 5 -18 5 -19 0 -27 -2 -17 -5z"/>
<path d="M13808 2273 c7 -3 16 -2 19 1 4 3 -2 6 -13 5 -11 0 -14 -3 -6 -6z"/>
<path d="M16613 2273 c15 -2 37 -2 50 0 12 2 0 4 -28 4 -27 0 -38 -2 -22 -4z"/>
<path d="M20668 2273 c7 -3 16 -2 19 1 4 3 -2 6 -13 5 -11 0 -14 -3 -6 -6z"/>
<path d="M8358 2263 c12 -2 30 -2 40 0 9 3 -1 5 -23 4 -22 0 -30 -2 -17 -4z"/>
<path d="M8968 2263 c12 -2 30 -2 40 0 9 3 -1 5 -23 4 -22 0 -30 -2 -17 -4z"/>
<path d="M11098 2263 c17 -2 47 -2 65 0 17 2 3 4 -33 4 -36 0 -50 -2 -32 -4z"/>
<path d="M13868 2263 c17 -2 47 -2 65 0 17 2 3 4 -33 4 -36 0 -50 -2 -32 -4z"/>
<path d="M8453 2253 c15 -2 39 -2 55 0 15 2 2 4 -28 4 -30 0 -43 -2 -27 -4z"/>
<path d="M8863 2253 c15 -2 39 -2 55 0 15 2 2 4 -28 4 -30 0 -43 -2 -27 -4z"/>
<path d="M5253 2243 c15 -2 39 -2 55 0 15 2 2 4 -28 4 -30 0 -43 -2 -27 -4z"/>
<path d="M8628 2243 c34 -2 88 -2 120 0 31 2 3 3 -63 3 -66 0 -92 -1 -57 -3z"/>
</g>
</svg>
